<svg width="128" height="128" viewBox="0 0 128 128" fill="none" xmlns="http://www.w3.org/2000/svg">
<path d="M106.667 21.3333H21.3333C18.5044 21.3333 15.7912 22.4571 13.7909 24.4575C11.7905 26.4579 10.6667 29.171 10.6667 32V96C10.6667 98.829 11.7905 101.542 13.7909 103.542C15.7912 105.543 18.5044 106.667 21.3333 106.667H106.667C112.533 106.667 117.333 101.867 117.333 96V32C117.333 29.171 116.21 26.4579 114.209 24.4575C112.209 22.4571 109.496 21.3333 106.667 21.3333ZM106.667 96H21.3333V42.6667H106.667V96ZM96 90.6667H64V80H96V90.6667ZM40 90.6667L32.48 83.1467L46.24 69.3333L32.4267 55.52L40 48L61.3333 69.3333L40 90.6667Z" fill="black"/>
</svg>
